<svg width="18" height="18" viewBox="0 0 18 18" fill="none" xmlns="http://www.w3.org/2000/svg">
<path d="M7.97656 0.508789L8.00185 0.00925282L7.98859 0.00893378L7.97656 0.508789ZM14.7227 7.61133L15.2227 7.6247V7.61133H14.7227ZM14.7129 7.97656L15.2124 8.00185L15.2127 7.98993L14.7129 7.97656ZM13.293 11.8838L12.8936 11.583C12.7364 11.7916 12.7664 12.0861 12.9623 12.2588L13.293 11.8838ZM13.3408 11.9268L12.9873 12.2803L12.9873 12.2804L13.3408 11.9268ZM17.208 15.793L17.5618 15.4397L17.5615 15.4394L17.208 15.793ZM15.793 17.208L15.4394 17.5615L15.4397 17.5618L15.793 17.208ZM11.9268 13.3408L12.2804 12.9873L12.2803 12.9873L11.9268 13.3408ZM11.8838 13.293L12.2588 12.9623C12.086 12.7664 11.7916 12.7364 11.5829 12.8936L11.8838 13.293ZM7.61133 14.7227L7.59799 15.2227H7.61134L7.61133 14.7227ZM7.24512 14.7129L7.21979 15.2124L7.23179 15.2127L7.24512 14.7129ZM0.508789 7.97656L0.00875798 7.9886L0.00942841 8.00184L0.508789 7.97656ZM0.5 7.61133H-0.00014478L0.00014472 7.62336L0.5 7.61133ZM7.61133 0.5L7.62336 0H7.61133V0.5ZM7.61133 2.5L7.61135 2H7.61133V2.5ZM2.5 7.61133H2V7.61135L2.5 7.61133ZM7.61133 12.7227V13.2227H7.61135L7.61133 12.7227ZM12.7227 7.61133L13.2227 7.61135V7.61133H12.7227ZM7.97656 0.508789L7.95129 1.00815C11.4442 1.18496 14.2227 4.07418 14.2227 7.61133H14.7227H15.2227C15.2227 3.53887 12.024 0.213028 8.00184 0.00942841L7.97656 0.508789ZM14.7227 7.61133L14.2228 7.59796L14.2131 7.9632L14.7129 7.97656L15.2127 7.98993L15.2225 7.62469L14.7227 7.61133ZM14.7129 7.97656L14.2135 7.95128C14.1447 9.31092 13.6634 10.5608 12.8936 11.583L13.293 11.8838L13.6924 12.1846C14.5777 11.0089 15.1329 9.56858 15.2123 8.00184L14.7129 7.97656ZM13.293 11.8838L12.9623 12.2588C12.9682 12.2641 12.9739 12.269 12.9778 12.2724C12.9823 12.2762 12.9849 12.2785 12.9872 12.2805C12.9921 12.2848 12.9908 12.2839 12.9873 12.2803L13.3408 11.9268L13.6944 11.5732C13.6757 11.5545 13.6584 11.5391 13.6471 11.5291C13.6183 11.5039 13.6438 11.5266 13.6237 11.5088L13.293 11.8838ZM13.3408 11.9268L12.9873 12.2804L16.8545 16.1466L17.208 15.793L17.5615 15.4394L13.6943 11.5732L13.3408 11.9268ZM17.208 15.793L16.8542 16.1463C17.0495 16.3419 17.0493 16.6596 16.8545 16.8545L17.208 17.208L17.5616 17.5616C18.1474 16.9757 18.1465 16.0252 17.5618 15.4397L17.208 15.793ZM17.208 17.208L16.8545 16.8545C16.6596 17.0493 16.3419 17.0495 16.1463 16.8542L15.793 17.208L15.4397 17.5618C16.0252 18.1465 16.9757 18.1474 17.5616 17.5616L17.208 17.208ZM15.793 17.208L16.1466 16.8545L12.2804 12.9873L11.9268 13.3408L11.5732 13.6943L15.4394 17.5615L15.793 17.208ZM11.9268 13.3408L12.2803 12.9873C12.2839 12.9908 12.2848 12.9921 12.2805 12.9872C12.2785 12.9849 12.2762 12.9823 12.2724 12.9778C12.269 12.9739 12.2641 12.9682 12.2588 12.9623L11.8838 13.293L11.5088 13.6237C11.5266 13.6438 11.5039 13.6183 11.5291 13.6471C11.5391 13.6584 11.5545 13.6757 11.5732 13.6944L11.9268 13.3408ZM11.8838 13.293L11.5829 12.8936C10.4764 13.7271 9.10271 14.2226 7.61131 14.2227L7.61133 14.7227L7.61134 15.2227C9.32835 15.2226 10.9117 14.6513 12.1846 13.6923L11.8838 13.293ZM7.61133 14.7227L7.62466 14.2228L7.25845 14.2131L7.24512 14.7129L7.23179 15.2127L7.598 15.2225L7.61133 14.7227ZM7.24512 14.7129L7.27043 14.2135C3.89039 14.0422 1.17924 11.3313 1.00815 7.95129L0.508789 7.97656L0.00942841 8.00184C0.206469 11.8945 3.32737 15.0149 7.2198 15.2122L7.24512 14.7129ZM0.508789 7.97656L1.00864 7.96453L0.999855 7.5993L0.5 7.61133L0.00014472 7.62336L0.00893378 7.98859L0.508789 7.97656ZM0.5 7.61133H1C1 3.96011 3.96011 1 7.61133 1V0.5V0C3.40783 0 0 3.40783 0 7.61133H0.5ZM7.61133 0.5L7.5993 0.999855L7.96453 1.00864L7.97656 0.508789L7.98859 0.00893378L7.62336 0.00014472L7.61133 0.5ZM7.61133 2.5V2C4.5124 2 2 4.5124 2 7.61133H2.5H3C3 5.06468 5.06468 3 7.61133 3V2.5ZM2.5 7.61133L2 7.61135C2.00013 10.7101 4.51245 13.2227 7.61133 13.2227V12.7227V12.2227C5.06477 12.2227 3.00011 10.1579 3 7.61131L2.5 7.61133ZM7.61133 12.7227L7.61135 13.2227C10.7101 13.2225 13.2225 10.7101 13.2227 7.61135L12.7227 7.61133L12.2227 7.61131C12.2226 10.1578 10.1578 12.2226 7.61131 12.2227L7.61133 12.7227ZM12.7227 7.61133H13.2227C13.2227 4.51245 10.7101 2.00013 7.61135 2L7.61133 2.5L7.61131 3C10.1579 3.00011 12.2227 5.06477 12.2227 7.61133H12.7227Z" fill="currentColor"/>
</svg>
